<?xml version="1.0" encoding="utf-8"?><svg xmlns="http://www.w3.org/2000/svg" viewBox="0 0 689.76 113.11"><defs><style>.cls-1{fill:#fff;}</style></defs><title>Ресурс 2</title><g id="Слой_2" data-name="Слой 2"><g id="Слой_1-2" data-name="Слой 1"><path class="cls-1" d="M45.23,71.28a1.7,1.7,0,0,1,1.29.58L50,75.68a24.91,24.91,0,0,1-8.9,6.68,30.63,30.63,0,0,1-12.64,2.37,29.57,29.57,0,0,1-11.72-2.24,25.82,25.82,0,0,1-9-6.27A28.18,28.18,0,0,1,2,66.59,35.89,35.89,0,0,1,0,54.27,34.29,34.29,0,0,1,2.14,41.94a28.29,28.29,0,0,1,6-9.63,27,27,0,0,1,9.23-6.27,30.59,30.59,0,0,1,11.89-2.24,28.9,28.9,0,0,1,11.29,2.08,28.43,28.43,0,0,1,8.59,5.52l-2.9,4.11a2.49,2.49,0,0,1-.73.75,2,2,0,0,1-1.14.29,3.27,3.27,0,0,1-1.85-.79A27.26,27.26,0,0,0,39.73,34a21.89,21.89,0,0,0-4.25-1.76,21.52,21.52,0,0,0-6.31-.79A20.73,20.73,0,0,0,21,33a18,18,0,0,0-6.37,4.48,20.33,20.33,0,0,0-4.15,7.18A29.25,29.25,0,0,0,9,54.27a28.24,28.24,0,0,0,1.54,9.67,21.16,21.16,0,0,0,4.23,7.18,17.94,17.94,0,0,0,6.35,4.48A20.13,20.13,0,0,0,29,77.13a31,31,0,0,0,4.63-.31,19.8,19.8,0,0,0,3.78-.93,16.54,16.54,0,0,0,3.26-1.6,21.71,21.71,0,0,0,3-2.34,3.36,3.36,0,0,1,.71-.48A1.73,1.73,0,0,1,45.23,71.28Z"/><path class="cls-1" d="M116,24.47V84.06h-8.84V57.21H76.1V84.06H67.22V24.47H76.1V50.78h31.08V24.47Z"/><path class="cls-1" d="M194.57,54.27a34,34,0,0,1-2.14,12.26,28.24,28.24,0,0,1-6,9.63,27.2,27.2,0,0,1-9.34,6.29,33.61,33.61,0,0,1-24.13,0,26.94,26.94,0,0,1-9.34-6.29,28.65,28.65,0,0,1-6-9.63,33.73,33.73,0,0,1-2.16-12.26A33.78,33.78,0,0,1,137.55,42a28.61,28.61,0,0,1,6-9.65,27.17,27.17,0,0,1,9.34-6.31,33.31,33.31,0,0,1,24.13,0,27.44,27.44,0,0,1,9.34,6.31,28.2,28.2,0,0,1,6,9.65A34.08,34.08,0,0,1,194.57,54.27Zm-9,0a29.32,29.32,0,0,0-1.45-9.54,20.34,20.34,0,0,0-4.13-7.18A17.89,17.89,0,0,0,173.47,33a23.62,23.62,0,0,0-17,0A18.09,18.09,0,0,0,150,37.55a20.15,20.15,0,0,0-4.15,7.18,29.29,29.29,0,0,0-1.45,9.54,29.23,29.23,0,0,0,1.45,9.56A20.18,20.18,0,0,0,150,71a17.86,17.86,0,0,0,6.49,4.5,23.91,23.91,0,0,0,17,0,17.66,17.66,0,0,0,6.47-4.5,20.37,20.37,0,0,0,4.13-7.16A29.26,29.26,0,0,0,185.52,54.27Z"/><path class="cls-1" d="M255.56,71.28a1.7,1.7,0,0,1,1.29.58l3.49,3.82a24.91,24.91,0,0,1-8.9,6.68,30.63,30.63,0,0,1-12.64,2.37,29.57,29.57,0,0,1-11.72-2.24,25.82,25.82,0,0,1-9-6.27,28.18,28.18,0,0,1-5.75-9.63,35.89,35.89,0,0,1-2-12.32,34.29,34.29,0,0,1,2.14-12.32,28.29,28.29,0,0,1,6-9.63,27,27,0,0,1,9.23-6.27,30.59,30.59,0,0,1,11.89-2.24,28.9,28.9,0,0,1,11.29,2.08,28.43,28.43,0,0,1,8.59,5.52l-2.9,4.11a2.49,2.49,0,0,1-.73.75,2,2,0,0,1-1.14.29,3.27,3.27,0,0,1-1.85-.79A27.26,27.26,0,0,0,250.07,34a21.89,21.89,0,0,0-4.25-1.76,21.52,21.52,0,0,0-6.31-.79A20.73,20.73,0,0,0,231.37,33,18,18,0,0,0,225,37.48a20.33,20.33,0,0,0-4.15,7.18,29.25,29.25,0,0,0-1.47,9.61,28.24,28.24,0,0,0,1.54,9.67,21.16,21.16,0,0,0,4.23,7.18,17.94,17.94,0,0,0,6.35,4.48,20.13,20.13,0,0,0,7.88,1.54,31,31,0,0,0,4.63-.31,19.8,19.8,0,0,0,3.78-.93,16.54,16.54,0,0,0,3.26-1.6,21.71,21.71,0,0,0,3-2.34,3.36,3.36,0,0,1,.71-.48A1.73,1.73,0,0,1,255.56,71.28Z"/><path class="cls-1" d="M331.92,54.27a34,34,0,0,1-2.14,12.26,28.24,28.24,0,0,1-6,9.63,27.2,27.2,0,0,1-9.34,6.29,33.61,33.61,0,0,1-24.13,0,26.94,26.94,0,0,1-9.34-6.29,28.65,28.65,0,0,1-6-9.63,33.73,33.73,0,0,1-2.16-12.26A33.78,33.78,0,0,1,274.9,42a28.61,28.61,0,0,1,6-9.65,27.17,27.17,0,0,1,9.34-6.31,33.31,33.31,0,0,1,24.13,0,27.44,27.44,0,0,1,9.34,6.31,28.2,28.2,0,0,1,6,9.65A34.08,34.08,0,0,1,331.92,54.27Zm-9,0a29.32,29.32,0,0,0-1.45-9.54,20.34,20.34,0,0,0-4.13-7.18A17.89,17.89,0,0,0,310.81,33a23.62,23.62,0,0,0-17,0,18.09,18.09,0,0,0-6.49,4.52,20.15,20.15,0,0,0-4.15,7.18,29.29,29.29,0,0,0-1.45,9.54,29.23,29.23,0,0,0,1.45,9.56A20.18,20.18,0,0,0,287.35,71a17.86,17.86,0,0,0,6.49,4.5,23.91,23.91,0,0,0,17,0,17.66,17.66,0,0,0,6.47-4.5,20.37,20.37,0,0,0,4.13-7.16A29.26,29.26,0,0,0,322.87,54.27Z"/><path class="cls-1" d="M385.4,76.63v7.43H351.29V24.47h8.84V76.63Z"/><path class="cls-1" d="M451.46,84.06h-6.8a3,3,0,0,1-1.91-.58A3.26,3.26,0,0,1,441.67,82L436.4,68.17H410.13L404.86,82a3.37,3.37,0,0,1-1.08,1.43,2.92,2.92,0,0,1-1.91.64h-6.8L418.8,24.47h8.92ZM434,61.86l-8.84-23.11a51.51,51.51,0,0,1-1.91-6q-.46,1.78-.93,3.32t-.93,2.74l-8.8,23Z"/><path class="cls-1" d="M502,31.86H483v52.2h-8.8V31.86h-19V24.47H502Z"/><path class="cls-1" d="M555.82,76.88l0,7.18H518.85V24.47h36.93v7.18H527.73V50.53H550.3v6.93H527.73V76.88Z"/><circle class="cls-1" cx="633.2" cy="56.55" r="20.89"/><path class="cls-1" d="M657.12,0H609.29a32.73,32.73,0,0,0-32.64,32.64V80.47a32.73,32.73,0,0,0,32.64,32.64h47.83a32.73,32.73,0,0,0,32.64-32.64V32.64A32.73,32.73,0,0,0,657.12,0ZM594.06,21.45a6,6,0,1,1,6,6A6,6,0,0,1,594.06,21.45ZM633.2,85.67a29.11,29.11,0,1,1,29.11-29.11A29.11,29.11,0,0,1,633.2,85.67Z"/></g></g></svg>