<svg xmlns="http://www.w3.org/2000/svg" viewBox="0 0 769.18 102.7" fill="#fff"><path d="M712.8 0H597.33a9.5 9.5 0 0 0-9.5 9.5v83.7a9.5 9.5 0 0 0 9.5 9.5H712.8a9.5 9.5 0 0 0 9.5-9.5V9.5a9.5 9.5 0 0 0-9.5-9.5zm-32.06 63.86V64H630.8a14.48 14.48 0 1 1 10.84-4.89h26.4a14.47 14.47 0 1 1 12.67 4.77zm46.86 7.86v-37.5l41.57-13.04v63.58L727.6 71.72zM45 67.12a1.69 1.69 0 0 1 1.28.58l3.47 3.8a24.78 24.78 0 0 1-8.86 6.65 30.47 30.47 0 0 1-12.57 2.35 29.42 29.42 0 0 1-11.66-2.23A25.68 25.68 0 0 1 7.74 72 28 28 0 0 1 2 62.45a35.69 35.69 0 0 1-2-12.26 34.14 34.14 0 0 1 2.13-12.26 28.17 28.17 0 0 1 6-9.58 26.91 26.91 0 0 1 9.19-6.23 30.44 30.44 0 0 1 11.83-2.23A28.78 28.78 0 0 1 40.34 22a28.3 28.3 0 0 1 8.55 5.49L46 31.53a2.48 2.48 0 0 1-.72.74 2 2 0 0 1-1.14.29 3.25 3.25 0 0 1-1.84-.79A27.09 27.09 0 0 0 39.53 30a21.87 21.87 0 0 0-4.23-1.75 21.43 21.43 0 0 0-6.3-.77A20.63 20.63 0 0 0 20.93 29a17.91 17.91 0 0 0-6.34 4.46 20.23 20.23 0 0 0-4.13 7.14A29.1 29.1 0 0 0 9 50.19a28.11 28.11 0 0 0 1.53 9.62A21.07 21.07 0 0 0 14.74 67a17.84 17.84 0 0 0 6.32 4.46 20 20 0 0 0 7.84 1.53 31 31 0 0 0 4.6-.31 19.78 19.78 0 0 0 3.76-.93 16.46 16.46 0 0 0 3.24-1.59 21.67 21.67 0 0 0 3-2.33 3.33 3.33 0 0 1 .7-.47 1.73 1.73 0 0 1 .8-.24zm70.44-46.57v59.28h-8.8v-26.7H75.72v26.7h-8.84V20.55h8.84v26.17h30.92V20.55zM193.6 50.2a33.85 33.85 0 0 1-2.13 12.2 28.1 28.1 0 0 1-6 9.58 27.06 27.06 0 0 1-9.29 6.25 33.43 33.43 0 0 1-24 0 26.79 26.79 0 0 1-9.3-6.22 28.49 28.49 0 0 1-6-9.58 33.55 33.55 0 0 1-2.15-12.2A33.6 33.6 0 0 1 136.86 38a28.45 28.45 0 0 1 6-9.6 27 27 0 0 1 9.29-6.28 33.15 33.15 0 0 1 24 0 27.3 27.3 0 0 1 9.29 6.28 28.06 28.06 0 0 1 6 9.6 33.9 33.9 0 0 1 2.15 12.19zm-9 0a29.16 29.16 0 0 0-1.45-9.5 20.24 20.24 0 0 0-4.14-7.14 17.83 17.83 0 0 0-6.44-4.5 23.51 23.51 0 0 0-16.89 0 18 18 0 0 0-6.46 4.5 20.06 20.06 0 0 0-4.13 7.14 29.15 29.15 0 0 0-1.44 9.5 29.09 29.09 0 0 0 1.44 9.52 20.08 20.08 0 0 0 4.13 7.12 17.78 17.78 0 0 0 6.46 4.48 23.8 23.8 0 0 0 16.89 0 17.59 17.59 0 0 0 6.44-4.48 20.26 20.26 0 0 0 4.11-7.12 29.1 29.1 0 0 0 1.48-9.52zm69.68 16.92a1.69 1.69 0 0 1 1.28.58l3.47 3.8a24.78 24.78 0 0 1-8.86 6.65 30.47 30.47 0 0 1-12.57 2.35 29.42 29.42 0 0 1-11.66-2.23A25.68 25.68 0 0 1 217 72a28 28 0 0 1-5.72-9.58 35.69 35.69 0 0 1-2-12.26 34.14 34.14 0 0 1 2.13-12.26 28.17 28.17 0 0 1 6-9.58 26.91 26.91 0 0 1 9.19-6.23 30.44 30.44 0 0 1 11.83-2.23A28.78 28.78 0 0 1 249.61 22a28.3 28.3 0 0 1 8.55 5.49l-2.9 4.1a2.48 2.48 0 0 1-.72.74 2 2 0 0 1-1.14.29 3.25 3.25 0 0 1-1.84-.79 27.09 27.09 0 0 0-2.76-1.82 21.87 21.87 0 0 0-4.23-1.75 21.43 21.43 0 0 0-6.28-.78 20.63 20.63 0 0 0-8.09 1.53 17.91 17.91 0 0 0-6.34 4.46 20.23 20.23 0 0 0-4.13 7.14 29.1 29.1 0 0 0-1.47 9.56 28.11 28.11 0 0 0 1.53 9.62A21.07 21.07 0 0 0 224 67a17.84 17.84 0 0 0 6.32 4.46 20 20 0 0 0 7.84 1.53 31 31 0 0 0 4.6-.31 19.78 19.78 0 0 0 3.76-.93 16.46 16.46 0 0 0 3.24-1.59 21.67 21.67 0 0 0 3-2.33 3.33 3.33 0 0 1 .7-.47 1.73 1.73 0 0 1 .82-.24zm75.97-16.92a33.85 33.85 0 0 1-2.13 12.2 28.1 28.1 0 0 1-6 9.58 27.06 27.06 0 0 1-9.29 6.25 33.43 33.43 0 0 1-24 0 26.79 26.79 0 0 1-9.3-6.22 28.49 28.49 0 0 1-6-9.58 33.55 33.55 0 0 1-2.15-12.2A33.6 33.6 0 0 1 273.52 38a28.45 28.45 0 0 1 6-9.6 27 27 0 0 1 9.29-6.28 33.15 33.15 0 0 1 24 0 27.3 27.3 0 0 1 9.29 6.28 28.06 28.06 0 0 1 6 9.6 33.9 33.9 0 0 1 2.15 12.19zm-9 0a29.16 29.16 0 0 0-1.45-9.5 20.24 20.24 0 0 0-4.11-7.14 17.83 17.83 0 0 0-6.44-4.5 23.51 23.51 0 0 0-16.89 0 18 18 0 0 0-6.46 4.5 20.06 20.06 0 0 0-4.13 7.14 29.15 29.15 0 0 0-1.44 9.5 29.09 29.09 0 0 0 1.44 9.52 20.08 20.08 0 0 0 4.13 7.12 17.78 17.78 0 0 0 6.46 4.48 23.8 23.8 0 0 0 16.89 0 17.59 17.59 0 0 0 6.44-4.48 20.26 20.26 0 0 0 4.11-7.12 29.1 29.1 0 0 0 1.45-9.52zm62.2 22.24v7.4h-33.94v-59.3h8.8v51.9zm65.73 7.4h-6.77a3 3 0 0 1-1.9-.58 3.24 3.24 0 0 1-1.07-1.49L434.2 64h-26.13l-5.24 13.75a3.36 3.36 0 0 1-1.07 1.42 2.91 2.91 0 0 1-1.9.64h-6.77l23.6-59.26h8.88zM431.8 57.75l-8.8-23a51.23 51.23 0 0 1-1.9-5.94q-.46 1.78-.93 3.3-.47 1.52-.93 2.72l-8.76 22.92zm67.62-29.85H480.6v51.93h-8.75V27.9h-18.9v-7.35h46.5zM553 72.7v7.14h-36.76v-59.3H553v7.14h-27.93v18.78h22.46v6.9h-22.46V72.7z"/></svg>